<svg width="16" height="16" viewBox="0 0 16 16" fill="none" xmlns="http://www.w3.org/2000/svg">
<path d="M13.2002 1.94922C13.3501 1.94926 13.4498 1.99965 13.5498 2.09961C13.6497 2.19958 13.7002 2.29927 13.7002 2.44922C13.7002 2.59914 13.6496 2.69888 13.5996 2.79883L2.59961 13.8994C2.49971 13.9992 2.39985 14.0488 2.25 14.0488C2.10015 14.0488 2.00029 13.9992 1.90039 13.8994C1.80039 13.7994 1.75 13.6988 1.75 13.5488C1.75009 13.399 1.80048 13.2991 1.90039 13.1992L3.25 11.7988C2.80009 11.4989 2.44956 11.149 2.09961 10.749C0.749772 9.14922 0 8.24901 0 7.99902C0.000364591 7.74875 0.700022 6.84855 2.09961 5.24902C3.49961 3.64902 5.5 2.74902 8 2.49902C9.35 2.64902 10.5 2.94922 11.5 3.44922L12.8496 2.09961C12.9496 1.99961 13.0502 1.94922 13.2002 1.94922ZM13.25 4.59961C13.45 4.79954 13.7005 4.99911 13.9004 5.24902C15.25 6.84855 15.9996 7.74875 16 7.99902C16 8.24901 15.3002 9.14922 13.9004 10.749C12.5004 12.349 10.5 13.249 8 13.499C6.9 13.399 5.9498 13.1488 5.0498 12.7988L5.7998 12.0488C6.4498 12.2988 7.2 12.449 8 12.499C9.74999 12.399 11.3002 11.7492 12.4502 10.6992C13.6001 9.64927 14.3996 8.74899 14.8496 7.99902C14.4496 7.29911 13.6497 6.39938 12.5 5.34961L13.25 4.59961ZM11.2002 6.59961C11.4 6.99949 11.5 7.49926 11.5 7.99902C11.5 8.99897 11.1499 9.84904 10.5 10.499C9.80001 11.149 8.99999 11.499 8 11.499C7.5 11.499 7.04961 11.3992 6.59961 11.1992L7.40039 10.3994C7.60025 10.4494 7.80015 10.499 8 10.499C8.69999 10.499 9.25001 10.199 9.75 9.74902C10.2499 9.29903 10.5 8.69897 10.5 7.99902C10.5 7.79918 10.4504 7.59926 10.4004 7.39941L11.2002 6.59961ZM8 3.49902C6.25 3.59902 4.74961 4.24883 3.59961 5.29883C2.44974 6.34871 1.65022 7.24907 1.2002 7.99902C1.60017 8.69898 2.39973 9.59931 3.59961 10.6992C3.69957 10.7992 3.85006 10.9488 4 11.0488L5.0498 9.94922C4.69984 9.39924 4.5 8.74898 4.5 7.99902C4.50004 6.99911 4.80005 6.14898 5.5 5.49902C6.19998 4.84908 7.00005 4.49902 8 4.49902C8.75 4.49902 9.35039 4.69883 9.90039 5.04883L10.75 4.19922C9.95 3.79922 9 3.54902 8 3.49902ZM8 5.49902C7.30005 5.49902 6.74997 5.79907 6.25 6.24902C5.75005 6.69898 5.50005 7.29911 5.5 7.99902C5.5 8.44899 5.59984 8.84924 5.7998 9.19922L9.15039 5.79883C8.85039 5.59883 8.45 5.49902 8 5.49902Z" fill="#606266"/>
</svg>
