<svg width="16" height="16" viewBox="0 0 16 16" fill="none" xmlns="http://www.w3.org/2000/svg">
<path d="M8 2.5C10.521 2.72933 12.4793 3.646 13.875 5.25C15.2707 6.854 15.979 7.77067 16 8C15.979 8.22933 15.2707 9.146 13.875 10.75C12.4793 12.354 10.521 13.2707 8 13.5C5.479 13.2707 3.52067 12.354 2.125 10.75C0.729333 9.146 0.021 8.22933 0 8C0.021 7.77067 0.729333 6.854 2.125 5.25C3.52067 3.646 5.479 2.72933 8 2.5ZM8 3.5C6.22902 3.61467 4.75512 4.21108 3.57812 5.28906C2.40121 6.36698 1.59923 7.2707 1.17188 8C1.5989 8.7293 2.40088 9.63302 3.57812 10.7109C4.75545 11.7889 6.22935 12.3853 8 12.5C9.77098 12.3853 11.2449 11.7889 12.4219 10.7109C13.5988 9.63302 14.4008 8.7293 14.8281 8C14.4011 7.2707 13.5991 6.36698 12.4219 5.28906C11.2445 4.21108 9.77065 3.61467 8 3.5ZM8 4.5C8.98967 4.521 9.81523 4.8621 10.4766 5.52344C11.1379 6.18477 11.479 7.01033 11.5 8C11.479 8.98967 11.1379 9.81523 10.4766 10.4766C9.81523 11.1379 8.98967 11.479 8 11.5C7.01033 11.479 6.18477 11.1379 5.52344 10.4766C4.8621 9.81523 4.521 8.98967 4.5 8C4.521 7.01033 4.8621 6.18477 5.52344 5.52344C6.18477 4.8621 7.01033 4.521 8 4.5ZM8 5.5C7.29167 5.521 6.70304 5.76571 6.23438 6.23438C5.76571 6.70304 5.521 7.29167 5.5 8C5.521 8.70833 5.76571 9.29696 6.23438 9.76562C6.70304 10.2343 7.29167 10.479 8 10.5C8.70833 10.479 9.29696 10.2343 9.76562 9.76562C10.2343 9.29696 10.479 8.70833 10.5 8C10.479 7.29167 10.2343 6.70304 9.76562 6.23438C9.29696 5.76571 8.70833 5.521 8 5.5Z" fill="#606266"/>
</svg>
