<svg width="24" height="24" viewBox="0 0 24 24" fill="none" xmlns="http://www.w3.org/2000/svg">
<path d="M18.3984 16.9004H22.3984V18.4004H18.3984V22.4004H16.8984V18.4004H12.8984V16.9004H16.8984V12.9004H18.3984V16.9004Z" fill="#606266"/>
<path d="M9.59766 1.59961H3.19766C2.29766 1.59961 1.59766 2.29961 1.59766 3.19961V9.59961C1.59766 10.4996 2.29766 11.1996 3.19766 11.1996H9.59766C10.4977 11.1996 11.1977 10.4996 11.1977 9.59961V3.19961C11.1977 2.29961 10.4977 1.59961 9.59766 1.59961ZM9.59766 8.79961C9.59766 9.19961 9.19766 9.59961 8.79766 9.59961H3.99766C3.59766 9.59961 3.19766 9.19961 3.19766 8.79961V3.99961C3.19766 3.59961 3.59766 3.19961 3.99766 3.19961H8.79766C9.19766 3.19961 9.59766 3.59961 9.59766 3.99961V8.79961Z" fill="#606266"/>
<path d="M20.8008 1.59961H14.4008C13.5008 1.59961 12.8008 2.29961 12.8008 3.19961V9.59961C12.8008 10.4996 13.5008 11.1996 14.4008 11.1996H20.8008C21.7008 11.1996 22.4008 10.4996 22.4008 9.59961V3.19961C22.4008 2.29961 21.7008 1.59961 20.8008 1.59961ZM20.8008 8.79961C20.8008 9.19961 20.4008 9.59961 20.0008 9.59961H15.2008C14.8008 9.59961 14.4008 9.19961 14.4008 8.79961V3.99961C14.4008 3.59961 14.8008 3.19961 15.2008 3.19961H20.0008C20.4008 3.19961 20.8008 3.59961 20.8008 3.99961V8.79961Z" fill="#606266"/>
<path d="M9.59766 12.7998H3.19766C2.29766 12.7998 1.59766 13.4998 1.59766 14.3998V20.7998C1.59766 21.6998 2.29766 22.3998 3.19766 22.3998H9.59766C10.4977 22.3998 11.1977 21.6998 11.1977 20.7998V14.3998C11.1977 13.4998 10.4977 12.7998 9.59766 12.7998ZM9.59766 19.9998C9.59766 20.3998 9.19766 20.7998 8.79766 20.7998H3.99766C3.59766 20.7998 3.19766 20.3998 3.19766 19.9998V15.1998C3.19766 14.7998 3.59766 14.3998 3.99766 14.3998H8.79766C9.19766 14.3998 9.59766 14.7998 9.59766 15.1998V19.9998Z" fill="#606266"/>
</svg>
