<svg width="16" height="16" viewBox="0 0 16 16" fill="none" xmlns="http://www.w3.org/2000/svg">
<path d="M3.5 7C3.354 7 3.23417 7.04683 3.1405 7.1405C3.04683 7.23417 3 7.354 3 7.5V13.5C3 13.646 3.04683 13.7658 3.1405 13.8595C3.23417 13.9532 3.354 14 3.5 14H12.5C12.646 14 12.7658 13.9532 12.8595 13.8595C12.9532 13.7658 13 13.646 13 13.5V7.5C13 7.354 12.9532 7.23417 12.8595 7.1405C12.7658 7.04683 12.646 7 12.5 7H3.5ZM3.5 6H12.5C12.927 6.01033 13.2812 6.15617 13.5625 6.4375C13.8438 6.71883 13.9897 7.073 14 7.5V13.5C13.9897 13.927 13.8438 14.2812 13.5625 14.5625C13.2812 14.8438 12.927 14.9897 12.5 15H3.5C3.073 14.9897 2.71883 14.8438 2.4375 14.5625C2.15617 14.2812 2.01033 13.927 2 13.5V7.5C2.01033 7.073 2.15617 6.71883 2.4375 6.4375C2.71883 6.15617 3.073 6.01033 3.5 6ZM8 8.5C8.146 8.5 8.26583 8.54683 8.3595 8.6405C8.45317 8.73417 8.5 8.854 8.5 9V12C8.5 12.146 8.45317 12.2658 8.3595 12.3595C8.26583 12.4532 8.146 12.5 8 12.5C7.854 12.5 7.73417 12.4532 7.6405 12.3595C7.54683 12.2658 7.5 12.146 7.5 12V9C7.5 8.854 7.54683 8.73417 7.6405 8.6405C7.73417 8.54683 7.854 8.5 8 8.5ZM11 6V5C10.979 4.14567 10.6873 3.43733 10.125 2.875C9.56267 2.31267 8.85433 2.021 8 2C7.14567 2.021 6.43733 2.31267 5.875 2.875C5.31267 3.43733 5.021 4.14567 5 5V6H11ZM8 1C9.13533 1.03133 10.078 1.422 10.828 2.172C11.578 2.922 11.9687 3.86467 12 5V7H4V5C4.03133 3.86467 4.422 2.922 5.172 2.172C5.922 1.422 6.86467 1.03133 8 1V1Z" fill="#606266"/>
</svg>
