<svg width="20" height="20" viewBox="0 0 20 20" fill="none" xmlns="http://www.w3.org/2000/svg">
<rect width="20" height="20" rx="4" fill="#2173F7"/>
<path d="M8.6 11H4.4C4.17909 11 4 11.1791 4 11.4V15.3C4 15.5209 4.17909 15.7 4.4 15.7H8.6C8.82091 15.7 9 15.5209 9 15.3V11.4C9 11.1791 8.82091 11 8.6 11Z" stroke="white" stroke-miterlimit="10"/>
<path d="M8.6 4.40039H4.4C4.17909 4.40039 4 4.57948 4 4.80039V8.70039C4 8.9213 4.17909 9.10039 4.4 9.10039H8.6C8.82091 9.10039 9 8.9213 9 8.70039V4.80039C9 4.57948 8.82091 4.40039 8.6 4.40039Z" stroke="white" stroke-miterlimit="10"/>
<path d="M15.6 4.40039H11.4C11.1791 4.40039 11 4.57948 11 4.80039V8.70039C11 8.9213 11.1791 9.10039 11.4 9.10039H15.6C15.8209 9.10039 16 8.9213 16 8.70039V4.80039C16 4.57948 15.8209 4.40039 15.6 4.40039Z" stroke="white" stroke-miterlimit="10"/>
<path d="M15.6 11H11.4C11.1791 11 11 11.1791 11 11.4V15.3C11 15.5209 11.1791 15.7 11.4 15.7H15.6C15.8209 15.7 16 15.5209 16 15.3V11.4C16 11.1791 15.8209 11 15.6 11Z" stroke="white" stroke-miterlimit="10"/>
</svg>
