<svg width="16" height="16" viewBox="0 0 16 16" fill="none" xmlns="http://www.w3.org/2000/svg">
<path d="M14 2.5C14.2813 2.51033 14.5158 2.60921 14.7031 2.79688C14.8905 2.98454 14.9893 3.219 15 3.5V11.5C14.9897 12.0627 14.7944 12.5341 14.4141 12.9141C14.0337 13.2941 13.5623 13.4893 13 13.5H3C2.43733 13.4897 1.96594 13.2944 1.58594 12.9141C1.20594 12.5337 1.01067 12.0623 1 11.5V3.5C1.01033 3.21867 1.10921 2.98421 1.29688 2.79688C1.48454 2.60954 1.719 2.51067 2 2.5H14ZM10.2656 7.92188C9.97401 8.24482 9.63277 8.49488 9.24219 8.67188C8.85152 8.84888 8.43733 8.9375 8 8.9375C7.56267 8.9375 7.14848 8.84888 6.75781 8.67188C6.36723 8.49488 6.02599 8.24482 5.73438 7.92188L2 3.64258V11.5C2.01033 11.7813 2.10921 12.0158 2.29688 12.2031C2.48454 12.3905 2.719 12.4893 3 12.5H13C13.2813 12.4897 13.5158 12.3908 13.7031 12.2031C13.8905 12.0155 13.9893 11.781 14 11.5V3.64258L10.2656 7.92188ZM6.5 7.26562C6.68764 7.48424 6.9116 7.65097 7.17188 7.76562C7.43221 7.88029 7.70833 7.9375 8 7.9375C8.29167 7.9375 8.56779 7.88029 8.82812 7.76562C9.0884 7.65097 9.31236 7.48424 9.5 7.26562L12.7969 3.5H3.20312L6.5 7.26562Z" fill="#606266"/>
</svg>
