<svg width="20" height="20" viewBox="0 0 20 20" fill="none" xmlns="http://www.w3.org/2000/svg">
<rect width="20" height="20" rx="4" fill="#2173F7"/>
<path d="M16 7V16.5C16 16.646 15.953 16.7657 15.8594 16.8594C15.7657 16.953 15.646 17 15.5 17H4.5C4.354 17 4.23429 16.953 4.14062 16.8594C4.04696 16.7657 4 16.646 4 16.5V3.5C4 3.354 4.04696 3.23429 4.14062 3.14062C4.23429 3.04696 4.354 3 4.5 3H12L16 7ZM5 16H15V8H11V4H5V16ZM13 14H7V13H13V14ZM13 11H7V10H13V11ZM9.5 8H7V7H9.5V8ZM12 7H14.5938L12 4.40625V7Z" fill="white"/>
</svg>
