<svg width="16" height="16" viewBox="0 0 16 16" fill="none" xmlns="http://www.w3.org/2000/svg">
<path d="M2.5 3.5C2.36739 3.5 2.24021 3.55268 2.14645 3.64645C2.05268 3.74021 2 3.86739 2 4V12C2 12.1326 2.05268 12.2598 2.14645 12.3536C2.24021 12.4473 2.36739 12.5 2.5 12.5H13.5C13.6326 12.5 13.7598 12.4473 13.8536 12.3536C13.9473 12.2598 14 12.1326 14 12V4C14 3.86739 13.9473 3.74021 13.8536 3.64645C13.7598 3.55268 13.6326 3.5 13.5 3.5H2.5ZM2.5 2.5H13.5C13.8978 2.5 14.2794 2.65804 14.5607 2.93934C14.842 3.22064 15 3.60218 15 4V12C15 12.3978 14.842 12.7794 14.5607 13.0607C14.2794 13.342 13.8978 13.5 13.5 13.5H2.5C2.10218 13.5 1.72064 13.342 1.43934 13.0607C1.15804 12.7794 1 12.3978 1 12V4C1 3.60218 1.15804 3.22064 1.43934 2.93934C1.72064 2.65804 2.10218 2.5 2.5 2.5V2.5Z" fill="#606266"/>
<path d="M11 5C11.2652 5 11.5196 5.10536 11.7071 5.29289C11.8946 5.48043 12 5.73478 12 6C12 6.26522 11.8946 6.51957 11.7071 6.70711C11.5196 6.89464 11.2652 7 11 7C10.7348 7 10.4804 6.89464 10.2929 6.70711C10.1054 6.51957 10 6.26522 10 6C10 5.73478 10.1054 5.48043 10.2929 5.29289C10.4804 5.10536 10.7348 5 11 5V5ZM4.5 7H8.5C8.83333 7 9 7.16667 9 7.5C9 7.83333 8.83333 8 8.5 8H4.5C4.16667 8 4 7.83333 4 7.5C4 7.16667 4.16667 7 4.5 7ZM4.5 9H8.5C8.83333 9 9 9.16667 9 9.5C9 9.83333 8.83333 10 8.5 10H4.5C4.16667 10 4 9.83333 4 9.5C4 9.16667 4.16667 9 4.5 9Z" fill="#606266"/>
</svg>
