<svg width="20" height="20" viewBox="0 0 20 20" fill="none" xmlns="http://www.w3.org/2000/svg">
<rect width="20" height="20" rx="4" fill="#2173F7"/>
<path d="M4 5V15H16V7H9.59L7.586 5H4ZM3.5 4H7.998L10.004 6H16.5C16.6326 6 16.7598 6.05268 16.8536 6.14645C16.9473 6.24021 17 6.36739 17 6.5V15.5C17 15.6326 16.9473 15.7598 16.8536 15.8536C16.7598 15.9473 16.6326 16 16.5 16H3.5C3.36739 16 3.24021 15.9473 3.14645 15.8536C3.05268 15.7598 3 15.6326 3 15.5V4.5C3 4.36739 3.05268 4.24021 3.14645 4.14645C3.24021 4.05268 3.36739 4 3.5 4V4ZM9.5 10.5V8.5H10.5V10.5H12.5V11.5H10.5V13.5H9.5V11.5H7.5V10.5H9.5Z" fill="white"/>
</svg>
