<svg width="16" height="16" viewBox="0 0 16 16" fill="none" xmlns="http://www.w3.org/2000/svg">
<path d="M11.5 10C12.2083 10.021 12.797 10.2657 13.2656 10.7344C13.7343 11.203 13.979 11.7917 14 12.5V14C14 14.146 13.953 14.2657 13.8594 14.3594C13.7657 14.453 13.646 14.5 13.5 14.5C13.354 14.5 13.2343 14.453 13.1406 14.3594C13.047 14.2657 13 14.146 13 14V12.5C12.9897 12.073 12.8438 11.7188 12.5625 11.4375C12.2812 11.1562 11.927 11.0103 11.5 11H4.5C4.073 11.0103 3.71883 11.1562 3.4375 11.4375C3.15617 11.7188 3.01033 12.073 3 12.5V14C3 14.146 2.95304 14.2657 2.85938 14.3594C2.76571 14.453 2.646 14.5 2.5 14.5C2.354 14.5 2.23429 14.453 2.14062 14.3594C2.04696 14.2657 2 14.146 2 14V12.5C2.021 11.7917 2.26571 11.203 2.73438 10.7344C3.20304 10.2657 3.79167 10.021 4.5 10H11.5ZM8 1C9.13533 1.03133 10.0781 1.42188 10.8281 2.17188C11.5781 2.92188 11.9687 3.86467 12 5C11.9687 6.13533 11.5781 7.07812 10.8281 7.82812C10.0781 8.57812 9.13533 8.96867 8 9C6.86467 8.96867 5.92188 8.57812 5.17188 7.82812C4.42188 7.07812 4.03133 6.13533 4 5C4.03133 3.86467 4.42188 2.92188 5.17188 2.17188C5.92188 1.42188 6.86467 1.03133 8 1ZM8 2C7.14567 2.021 6.43733 2.31267 5.875 2.875C5.31267 3.43733 5.021 4.14567 5 5C5.021 5.85433 5.31267 6.56267 5.875 7.125C6.43733 7.68733 7.14567 7.979 8 8C8.85433 7.979 9.56267 7.68733 10.125 7.125C10.6873 6.56267 10.979 5.85433 11 5C10.979 4.14567 10.6873 3.43733 10.125 2.875C9.56267 2.31267 8.85433 2.021 8 2Z" fill="#606266"/>
</svg>
